<svg width="180" height="47" viewBox="0 0 180 47" fill="none" xmlns="http://www.w3.org/2000/svg">
<path d="M12.6284 10.7647C5.08891 15.2188 -0.917495 20.8927 1.57076 26.7556C4.14156 32.8093 15.1717 36.9735 26.1467 39.6337C34.4409 41.6447 43.3994 43.0066 52.4247 44.0448C62.6568 45.2215 73.0187 45.953 83.5456 46.0802C93.9939 46.2074 104.478 45.8239 114.78 45.0008C124.482 44.2244 134.105 43.0328 143.185 41.2163C150.98 39.6561 158.441 37.5422 164.864 34.9157C169.88 32.8654 174.263 30.3848 176.841 27.4646C178.96 25.0682 179.562 22.4249 178.457 19.8751C177.309 17.2186 174.322 14.8204 170.576 12.8075C165.965 10.3269 160.112 8.40193 153.979 6.87168C146.306 4.95606 137.988 3.65403 129.557 2.74486C119.317 1.64113 108.868 1.20713 98.3887 1.0556C88.4789 0.911551 78.5298 1.03315 68.679 1.58875C53.9224 2.41935 38.5251 4.23583 26.4848 8.57965C21.8267 10.2596 17.825 12.3323 14.8493 14.7287C11.7989 17.1831 9.95142 19.9368 9.11021 22.7504C9.03946 22.9861 9.79812 23.0871 9.86888 22.8495C10.7573 19.8863 12.7659 17.0241 16.0915 14.4743C19.3934 11.9432 23.9297 9.82742 29.0752 8.14938C42.0275 3.92716 58.2542 2.36884 73.628 1.7197C83.8247 1.28944 94.0922 1.29692 104.305 1.54573C114.619 1.7964 124.879 2.46051 134.852 3.76066C142.926 4.81201 150.807 6.29175 157.961 8.37574C163.653 10.0332 168.932 12.1228 172.789 14.7343C175.996 16.9044 178.06 19.4504 178.225 22.1181C178.394 24.8793 176.417 27.5432 173.311 29.8479C169.231 32.8747 163.303 35.2749 157.057 37.2447C149.416 39.6542 141.082 41.4052 132.328 42.6773C122.422 44.1159 112.147 44.9802 101.844 45.4217C91.5057 45.865 81.0495 45.8576 70.7309 45.2851C60.2708 44.7052 49.795 43.5435 39.8223 41.9384C31.9959 40.6794 24.3306 39.0425 17.5813 36.7546C12.4751 35.0223 7.91129 32.8467 4.97491 30.1865C2.41197 27.8612 1.3978 25.2384 1.90882 22.6288C2.75396 18.3093 7.5693 14.349 13.1826 11.0322C13.4971 10.847 12.9468 10.5794 12.6284 10.7684V10.7647Z" fill="#292939" stroke="#252121" stroke-width="0.5"/>
</svg>
